/* XPM */
static char *dir[] = {
/* columns rows colors chars-per-pixel */
"36 31 256 2 ",
"   c #00030D",
".  c #000A0C",
"X  c #000513",
"o  c #000A14",
"O  c #00041C",
"+  c #000A1D",
"@  c #02131E",
"#  c #000624",
"$  c #000B22",
"%  c #000D2B",
"&  c #021222",
"*  c #02152D",
"=  c #08142E",
"-  c #000634",
";  c #000D36",
":  c #000B3B",
">  c #001035",
",  c #00123B",
"<  c #041C38",
"1  c #101F34",
"2  c #172738",
"3  c #24323F",
"4  c #000B44",
"5  c #000E48",
"6  c #001841",
"7  c #00164C",
"8  c #001D4D",
"9  c #001855",
"0  c #1C384D",
"q  c #002258",
"w  c #002A5A",
"e  c #193050",
"r  c #1D3A53",
"t  c #1F3D5F",
"y  c #273C51",
"u  c #0C3B71",
"i  c #263E60",
"p  c #374C5D",
"a  c #17436A",
"s  c #18477D",
"d  c #344B65",
"f  c #2E4C70",
"g  c #2C5179",
"h  c #25567B",
"j  c #35547A",
"k  c #3E5875",
"l  c #4E565E",
"z  c #595A52",
"x  c #435465",
"c  c #535D67",
"v  c #4C5C73",
"b  c #496072",
"n  c #516772",
"m  c #1A578A",
"M  c #195592",
"N  c #1D5890",
"B  c #245485",
"V  c #2B5583",
"C  c #245489",
"Z  c #2B568A",
"A  c #2D5C8E",
"S  c #345A85",
"D  c #2E5C91",
"F  c #255A9C",
"G  c #1F689F",
"H  c #2F669F",
"J  c #316191",
"K  c #3B6A94",
"L  c #3C709F",
"P  c #1F68AC",
"I  c #1C69BB",
"U  c #2466A1",
"Y  c #2C65A3",
"T  c #2A65AC",
"R  c #206AA7",
"E  c #3067A8",
"W  c #3569AB",
"Q  c #3A6CAB",
"!  c #3673AB",
"~  c #3B73AD",
"^  c #3872A0",
"/  c #236AB3",
"(  c #2F6BB4",
")  c #2B6FB8",
"_  c #286BB8",
"`  c #306BB3",
"'  c #2575BB",
"]  c #2F72B8",
"[  c #3175B7",
"{  c #3974B1",
"}  c #357AB4",
"|  c #3C78B1",
" . c #3276B9",
".. c #3579BA",
"X. c #446888",
"o. c #466C93",
"O. c #426D9C",
"+. c #406494",
"@. c #557397",
"#. c #617B9C",
"$. c #467DAC",
"%. c #4C7CAC",
"&. c #4978A2",
"*. c #557CA5",
"=. c #4476B2",
"-. c #457DB4",
";. c #4B7EB3",
":. c #4B7EBF",
">. c #1F78C6",
",. c #216FC1",
"<. c #2474C3",
"1. c #2C74C4",
"2. c #257ACC",
"3. c #2B7DCD",
"4. c #2978C5",
"5. c #327ACA",
"6. c #357EC3",
"7. c #2477D1",
"8. c #2A7CD3",
"9. c #247BDA",
"0. c #2B7EDA",
"q. c #267BD6",
"w. c #357FD2",
"e. c #467CC2",
"r. c #3E80BC",
"t. c #718399",
"y. c #5787AF",
"u. c #5B86A9",
"i. c #4583BB",
"p. c #4E84BD",
"a. c #5482B4",
"s. c #5987B9",
"d. c #5D8BBD",
"f. c #5688B8",
"g. c #758BA3",
"h. c #618BB8",
"j. c #6190BC",
"k. c #7996B3",
"l. c #7C9BB9",
"z. c #7396B7",
"x. c #2E82CC",
"c. c #3A83C5",
"v. c #3284CD",
"b. c #3A84CE",
"n. c #2D83D3",
"m. c #2E83D9",
"M. c #2F89D6",
"N. c #3384D4",
"B. c #3B86D3",
"V. c #348AD3",
"C. c #3D8AD5",
"Z. c #3484D9",
"A. c #3D84D9",
"S. c #358BDE",
"D. c #3C8CDB",
"F. c #3C91DD",
"G. c #388CE2",
"H. c #4D8DCB",
"J. c #4788C5",
"K. c #5589C2",
"L. c #5C8CC2",
"P. c #518ECC",
"I. c #5687C2",
"U. c #4E90CD",
"Y. c #5593CD",
"T. c #5995CF",
"R. c #5891C6",
"E. c #4387D3",
"W. c #4A85D0",
"Q. c #468BD4",
"!. c #4A8CD4",
"~. c #428DDB",
"^. c #498DD9",
"/. c #4387D8",
"(. c #538CD1",
"). c #4592DD",
"_. c #4C93DE",
"`. c #4B95D8",
"'. c #5296D5",
"]. c #5A96D2",
"[. c #5B9AD4",
"{. c #5296DD",
"}. c #549BDB",
"|. c #5C9CDB",
" X c #5C95D8",
".X c #618FC1",
"XX c #6391C2",
"oX c #6394CA",
"OX c #6897CA",
"+X c #6C9BCC",
"@X c #659AC6",
"#X c #759AC9",
"$X c #6499D3",
"%X c #6B9CD7",
"&X c #639DDB",
"*X c #6B9FDA",
"=X c #5EA2DF",
"-X c #75A2CD",
";X c #7AA3CF",
":X c #64A2DC",
">X c #6BA3DD",
",X c #6FA8DF",
"<X c #72A4D4",
"1X c #74A8D7",
"2X c #71A4DB",
"3X c #7CA7DD",
"4X c #76AADB",
"5X c #7BABDC",
"6X c #7EA4D1",
"7X c #4793E1",
"8X c #4B95E2",
"9X c #4C9AE3",
"0X c #5296E1",
"qX c #549BE4",
"wX c #5A9DE3",
"eX c #549DE8",
"rX c #619DE1",
"tX c #5DA2E4",
"yX c #5BA1E9",
"uX c #62A3E4",
"iX c #6CA7E0",
"pX c #6CAAE3",
"aX c #69A5EB",
"sX c #6BA9EB",
"dX c #65A8EB",
"fX c #73ABE3",
"gX c #7AADE3",
"hX c #79AAE8",
"jX c #79B5EB",
"kX c #7AB2E9",
"lX c #64ABF3",
"zX c #77ADF2",
"xX c #829BBB",
"cX c #849EC3",
"vX c #809FCD",
"bX c #8CA7C4",
"nX c #88A5C6",
"mX c #95B1CD",
"MX c #83ACD1",
"NX c #8AAAD4",
"BX c #84AAD7",
"VX c #93AFD6",
"CX c #8EB2D6",
"ZX c #8CB1DC",
"AX c #83B1D6",
"SX c #93B4DB",
"DX c #80AFE5",
"FX c #82B2E6",
"GX c #83B6EB",
"HX c #85B9EC",
"JX c #8BBCED",
"KX c #96B7E0",
"LX c #8FBFF0",
"PX c #81B7F3",
"IX c #91BFF0",
"UX c None",
/* pixels */
"UXUXUXUXUXUXUXx @ O O % O v UXUXUXUXUXUXUXUXUXUXUXUXUXUXUXUXUXUXUXUXUXUX",
"UXUXUXUXUXUXn 0 nXVXNXKXnXi x UXUXUXUXUXUXUXUXUXUXUXUXUXUXUXUXUXUXUXUXUX",
"UXUXUXUXUXp r MX+X5X+X%X<X;Xt d UXUXUXUXUXUXUXUXUXUXUXUXUXUXUXUXUXUXUXUX",
"UXUXUXUXd x z.@XpXJ. X(.*X3X6Xr b UXUXUXUXUXUXUXUXUXUXUXUXUXUXUXUXUXUXUX",
"UXc X * e nXZX:X}.0XqXlX!.&XFXMXt $   X X = O % $ $ $ + o X X l UXUXUXUX",
"l y bXnXVXNXOX X0XyX8X0XaX X%X-XCXl.mXmXbXcXnXxXxXxXxXl.k.g.t.1 x UXUXUX",
"  MX<X#XMX3XoX|.|.rXrXwX|.&X$X<X<X<X+XOXOXoXoXXXj.j.L.K.p.&.o.S 6 UXUXUX",
"& 1X].XXXX;.%X$X$X$X+X+XOXOXOXXX.X.XR.K.K.I.f.$.$.=.=...} L K S - UXUXUX",
"@ 5X>X+Xs.u 7 : , ; , , ; ; > > , > ; ; > > > < , 4 5 7 7 , ; - 6 % 3 UX",
"o <X:XOXw s 3XZXZXZXSXSXSXSXSXSXSXSXSXCXSXZXZX5X5XBXgXsXsX1X;X-XvX@.2 z ",
"o FX>Xf.8 3X>XiXiXfXfXfXgXgXgX5XfX4X,X,X>X:X:X:X:X&XrXqX9XY.Y.p.K.%.X.. ",
"o <X[.OX- DXPX X X}.=X&XuX:X:X:X:X:X|.[.}.'.'.H.U.H.W.D.V.J...P.{ | a @ ",
"o JX>Xd.; JX-.H.U.U.Y.Y.T.].T.T.T.Y.P.H.J.J.J.r.i.J.e.c...} | E W Q g o ",
"X 1X:X+X- L.=.~ ~ } | i.i.-.;.i.-.-.=.| ~ { { ! Q Q W / P R Y Y F H g . ",
"X 4X:Xd.: GXhXGXHXHXHXJXIXIXIXIXIXHXHXHXHXGXjXjXjXzXzXlXlXpXuXsXaX&XO.o ",
"o 4X:Xs.: FXfX,X,XfXfXgX5XgXDXgX5XgXfX4X,X>X:X:XtXwXwXeX9X`.`.^.~.c.A X ",
"X 4X&Xs.: gX>X|.qXwXwXwXtXuXuXuXuX:XwXqXqX}.`.).).).~.G.S.V.N.m.8.' M + ",
"X 4X|.s.: gX:X0X9XeXeXeXyXwXyXyXeXeXqX0X9X7X).F.F./.A.S.m.N.x.m.8.I M + ",
"X 1X$Xf.: DX*X0XqXqXqXwXyXwXwXyXwXwXeXqX9X0X_.Q.Q.W.W.E.C.c.c.5.5.) C X ",
"X 1X].s.: DX*X'.8X0XqXqXqXqXwXwXwX}.qX0X0X_.).).Q.H.W.C.B.c.c.5.5.) C X ",
"X <XY.y.: DX&X_.7X8X{.{.0XqX0X0X0X0X{._._._.~.F.D./.A.A.M.x.x.8.7.' M O ",
"X ;XR.a.; kX&X_._.8X_.0X0X0X0X0X{._._.8X7X^.~.G.S.A.A.Z.m.3.8.0.7.I M $ ",
"X z.y.y.: fXtX).7X8X8X8X7X9X9X0X7X7X7X7X~.~.F.D.D.A.B.w.Z.m.0.9.q.I M % ",
"o nXu.^ q tX0X/.~.~.~.7X).7X).).).7X~.~././.D.D.Z.B.w.w.w.8.q.9.7./ N % ",
"& z.h.%.5 sXyXQ.Q.Q.Q.^.^.^.`.^.^.^.Q.Q.Q.E.E.V.V.v.v.c.x.3.2.>.>.R m $ ",
"O l.*.H 9 sX{.E.E.Q.Q.Q.Q.Q.Q.^.Q.Q.Q.Q.E.E.C.V.M.v.v.x.x.2.2.>.' G h $ ",
"* b +.O.4 zX(.b.C.C.B.~.C.C.C.C.C.~.C.C.C.C.Z.M.M.n.x.3.8.3.2.>.) U B $ ",
"UX< f +.: %X&XE.b.B.B.B.C.C.C.B.b.C.B.B.b.v.v.N.n.3.3.5.5.1.4.] ] Y h % ",
"UXUX< k : #X%.{  . ......... . .........[ [ [  .] ` ` ` ` T T T E D g # ",
"UXUXUX% # #.S S J J J J J J J J J J J A J A A D D D Z Z Z C C Z V g d O ",
"UXUXUXUX1 X O O $ + O + + $ + $ + + + + $ O + + $ $ $ $ $ $ # $ $ + @ . "
};
