/* XPM */
static char *noname[] = {
/* width height ncolors chars_per_pixel */
"38 38 431 2",
/* colors */
"   c none",
" . c #97845C",
" X c #6D5E40",
" o c #D3C7AE",
" O c #D1C5AC",
" + c #EBE4D6",
" @ c #52452C",
" # c #0C0905",
" $ c #565147",
" % c #413E39",
" & c #645637",
" * c #A38D61",
" = c #A5A5A5",
" - c #BDAC8B",
" ; c #5D513A",
" : c #D8CDB6",
" > c #080501",
" , c #D6CBB4",
" < c #615D55",
" 1 c #F0EADE",
" 2 c #D4C9B2",
" 3 c #584D35",
" 4 c #635C4D",
" 5 c #D3C7B1",
" 6 c #C6B697",
" 7 c #4C473D",
" 8 c #F8F7F3",
" 9 c #151007",
" 0 c #C3B494",
" q c #978155",
" w c #826E47",
" e c #DED3BF",
" r c #988C77",
" t c #DBD1BC",
" y c #937D51",
" u c #382E1C",
" i c #B19D75",
" p c #FFFFFD",
" a c #867758",
" s c #080504",
" d c #CABC9E",
" f c #2F291D",
" g c #050301",
" h c #C9BA9D",
" j c #483B25",
" k c #040100",
" l c #18140D",
" z c #473B24",
" x c #17140C",
" c c #E2D9C6",
" v c #E0D7C4",
" b c #695938",
" n c #454139",
" m c #CEC0A5",
" M c #221B10",
" N c #7A6842",
" B c #E7DFCE",
" V c #20190E",
" C c #726344",
" Z c #A18A5B",
" A c #1D170B",
" S c #BCA986",
" D c #E2D9C9",
" F c #FDFAF4",
" G c #B9A783",
" H c #433923",
" J c #2E2615",
" K c #29231A",
" L c #423722",
" P c #D2C6AC",
" I c #2C2413",
" U c #C1B498",
" Y c #22201D",
" T c #3C3426",
" R c #E8E4DC",
" E c #D1C4AB",
" W c #3B3425",
" Q c #A89265",
" ! c #393223",
" ~ c #A79064",
" ^ c #0D0A05",
" / c #D7CFBE",
" ( c #C0AF8D",
" ) c #514F4B",
" _ c #4F4228",
" ` c #786643",
" ' c #635335",
" ] c #1D190E",
" [ c #FFFEF9",
" { c #D7CCB4",
" } c #AC966C",
" | c #675C46",
".  c #857149",
".. c #2B2415",
".X c #C5B595",
".o c #655A44",
".O c #EBE5D8",
".+ c #282012",
".@ c #76694E",
".# c #B09F7D",
".$ c #3B311E",
".% c #3A311D",
".& c #251E0F",
".* c #4E422A",
".= c #F4EFE4",
".- c #322C1F",
".; c #B09C73",
".: c #3D3B37",
".> c #362D19",
"., c #F3EDE3",
".< c #5F5134",
".1 c #161414",
".2 c #050200",
".3 c #645D50",
".4 c #998459",
".5 c #5A4B2F",
".6 c #6E5E3C",
".7 c #FAF5ED",
".8 c #120F06",
".9 c #0E0C0C",
".0 c #6B5A39",
".q c #0F0B03",
".w c #7C6943",
".e c #231C10",
".r c #CDBFA3",
".t c #221C0F",
".y c #FEFEFE",
".u c #211A0E",
".i c #6B6250",
".p c #A38B5C",
".a c #F1EDE4",
".s c #4B4B4B",
".d c #FCFCFC",
".f c #1F180C",
".g c #E5DCCB",
".h c #C9BB9F",
".j c #494949",
".k c #EEE9E1",
".l c #85734F",
".z c #020000",
".x c #474747",
".c c #E1D8C7",
".v c #FCF9F2",
".b c #B8A681",
".n c #454545",
".m c #434343",
".M c #5D574C",
".N c #211F1B",
".B c #414141",
".V c #54472C",
".C c #927E55",
".Z c #685839",
".A c #EAE2D3",
".S c #595348",
".D c #A68F62",
".F c #514329",
".G c #655636",
".H c #CBBDA4",
".J c #645435",
".K c #E6DECF",
".L c #BDAC89",
".P c #2F2718",
".I c #353535",
".U c #14110E",
".Y c #EFE8DB",
".T c #D3C7AF",
".R c #9B8557",
".E c #AB956A",
".W c #403622",
".Q c #36322C",
".! c #3F3621",
".~ c #978153",
".^ c #292112",
"./ c #383124",
".( c #271F10",
".) c #AB9D81",
"._ c #3A301C",
".` c #DACFB9",
".' c #E5DED1",
".] c #82765C",
".[ c #FFFFFB",
".{ c #635F58",
".} c #4D4C49",
".| c #AF9B71",
"X  c #D8D8D8",
"X. c #F2ECE1",
"XX c #252525",
"Xo c #2E271A",
"XO c #D1C7B0",
"X+ c #212121",
"X@ c #6E5D3B",
"X# c #1D1D1D",
"X$ c #C0B292",
"X% c #100C03",
"X& c #1B1B1B",
"X* c #F6F2E8",
"X= c #FFFFFE",
"X- c #211B0D",
"X; c #756545",
"X: c #20190C",
"X> c #504D45",
"X, c #151515",
"X< c #4A4A49",
"X1 c #EFEAE1",
"X2 c #EEEAE0",
"X3 c #E2D9C7",
"X4 c #111111",
"X5 c #FBF8F0",
"X6 c #0F0F0F",
"X7 c #584A2F",
"X8 c #423720",
"X9 c #FAF6EF",
"X0 c #585550",
"Xq c #D0C2A8",
"Xw c #0B0B0B",
"Xe c #090909",
"Xr c #E9E1D1",
"Xt c #A58E60",
"Xy c #5A513E",
"Xu c #5F5239",
"Xi c #786641",
"Xp c #050505",
"Xa c #322A1A",
"Xs c #030303",
"Xd c #413A2C",
"Xf c #312819",
"Xg c #010101",
"Xh c #1A1509",
"Xj c #6E5F41",
"Xk c #D4C8AF",
"Xl c #181307",
"Xz c #595754",
"Xx c #675C44",
"Xc c #A09072",
"Xv c #ECE5D7",
"Xb c #423F3A",
"Xn c #C0AF8E",
"Xm c #D9CEB7",
"XM c #625335",
"XN c #FFFEFA",
"XB c #070400",
"XV c #F1EBDF",
"XC c #D5CAB3",
"XZ c #1A150C",
"XA c #EFE9DD",
"XS c #C7B798",
"XD c #847149",
"XF c #161108",
"XG c #35332D",
"XH c #DFD4C0",
"XJ c #816D46",
"XK c #DCD2BD",
"XL c #241E0F",
"XP c #927C50",
"XI c #4E4D4C",
"XU c #4B4028",
"XY c #605136",
"XT c #655F52",
"XR c #AE9A72",
"XE c #050201",
"XW c #3D382E",
"XQ c #E1D8C5",
"X! c #60594D",
"X~ c #140F09",
"X^ c #B7A47E",
"X/ c #7E6B46",
"X( c #CFC1A6",
"X) c #0E0B03",
"X_ c #CDBFA4",
"X` c #0B0700",
"X' c #8B764C",
"X] c #1C160A",
"X[ c #FEFBF5",
"X{ c #BAA884",
"X} c #FCF9F3",
"X| c #9D8557",
"o  c #6D5E3F",
"o. c #2D2514",
"oX c #D1C5AB",
"oo c #3A3324",
"oO c #3E341E",
"o+ c #3D321D",
"o@ c #1D1B18",
"o# c #52504C",
"o$ c #413E38",
"o% c #BFAE8C",
"o& c #A38D60",
"o* c #796744",
"o= c #1F1A10",
"o- c #4E4127",
"o; c #0A0702",
"o: c #625234",
"o> c #D8CDB5",
"o, c #BCAC89",
"o< c #080500",
"o1 c #D7CBB4",
"o2 c #1A140B",
"o3 c #86724A",
"o4 c #181209",
"o5 c #625A4B",
"o6 c #705F3B",
"o7 c #232121",
"o8 c #847048",
"o9 c #151006",
"o0 c #C3B493",
"oq c #6E685A",
"ow c #282112",
"oe c #130E04",
"or c #C2B292",
"ot c #967F53",
"oy c #5C5445",
"ou c #261F10",
"oi c #E2DFD9",
"op c #241D0E",
"oa c #D9CFB9",
"os c #382E1B",
"od c #AF9B72",
"of c #352C18",
"og c #726140",
"oh c #C7B89A",
"oj c #5C5952",
"ok c #594A2E",
"ol c #DED5C1",
"oz c #B6A37C",
"ox c #F9F4EC",
"oc c #B5A17B",
"ov c #6A5938",
"ob c #110C05",
"on c #100C04",
"om c #F6F2E9",
"oM c #CEC0A4",
"oN c #B29F78",
"oB c #0E0A02",
"oV c #907B50",
"oC c #7B6842",
"oZ c #FFFFFF",
"oA c #0D0801",
"oS c #CCBEA2",
"oD c #FDFDFD",
"oF c #20190D",
"oG c #1E170B",
"oH c #E4DBCA",
"oJ c #C3B9A3",
"oK c #484848",
"oL c #F9F9F9",
"oP c #1B1508",
"oI c #FDFAF3",
"oU c #B9A782",
"oY c #F7F7F7",
"oT c #2F2615",
"oR c #444444",
"oE c #F5F5F5",
"oW c #424242",
"oQ c #40351F",
"o! c #CFC2A8",
"o~ c #F1F1F1",
"o^ c #E9E1D2",
"o/ c #A58E61",
"o( c #A38C5F",
"o) c #BEAD8A",
"o_ c #8D7950",
"o` c #9F885B",
"o' c #4B4944",
"o] c #363636",
"o[ c #F0E9DC",
"o{ c #D4C8B0",
"o} c #87734A",
"o| c #EEE7DA",
"O  c #171107",
"O. c #EDE7D9",
"OX c #ECE5D8",
"Oo c #988254",
"OO c #3E3520",
"O+ c #545350",
"O@ c #51442C",
"O# c #3B311D",
"O$ c #261E0F",
"O% c #DBD0BA",
"O& c #887858",
"O* c #443E33",
"O= c #1D1910",
"O- c #372D19",
"O; c #FEFEFA",
"O: c #F3EDE2",
"O> c #615E56",
"O, c #AE9A70",
"O< c #FAFAF6",
"O1 c #C6B798",
"O2 c #2B2417",
"O3 c #464542",
"O4 c #E0D6C2",
"O5 c #826F48",
"O6 c #DFD4C1",
"O7 c #E9E3D8",
"O8 c #F8F3EA",
"O9 c #1C1C1C",
"O0 c #0F0B02",
"Oq c #1A1A1A",
"Ow c #786848",
"Oe c #F5F1E7",
"Or c #372F1C",
"Ot c #181818",
"Oy c #615338",
"Ou c #211A0D",
"Oi c #CBBDA0",
"Op c #2B2924",
"Oa c #C8BB9D",
"Os c #040201",
"Od c #E3DAC8",
"Of c #85734E",
"Og c #5A4D31",
"Oh c #6E5E3E",
"Oj c #15110B",
"Ok c #433821",
"Ol c #57492E",
"Oz c #0C0C0C",
"Ox c #251E14",
"Oc c #E8E0D0",
"Ov c #9B8B6A",
"Ob c #1C1915",
"On c #796742",
"Om c #0B0701",
"OM c #E5DECD",
"ON c #040404",
"OB c #1E180D",
"OV c #020202",
"OC c #3C3831",
"OZ c #D6C9B1",
"OA c #50493E",
"OS c #443A25",
"OD c None",
/* pixels */
"                               k.qo.O-.foF                                  ",
"                              o9X_.v.=o{.Po#                                ",
"                              O .=oY.dXH @oj                                ",
"                              .uX}o~oLXK &oq                                ",
"            oeOm.*             LoZoY.d.A N.]              OV                ",
"          Xl.D.=.V.%O3         H.O.KXvO6OkXx          .+O7OfXs              ",
"        .2o(oZ.doZ.~ouO&  O,o!OMo[Od 1X.oU.!X,      OgoEoZ Ro Xs            ",
"        XgoioZoYoDoZoz ~oZoZoZoZX=oZX9XNoZoZOZXMXgOyoEO;.a cOiOVOp          ",
"        OzO2oE.y.yX5.coZoZ [oX Qo}ov 'o}oUXQoZoZ.XXaoJ.k.cOZO#oo.s          ",
"          Xe.CoZ FOdoZoZoX.GoQof.J ` Z ZX@ 3 .OMoZ BX7.#o>X@.+O>.n          ",
"            .W / 1oZX5 QX: 'ozOdOMoZoZoZOMoS.)Ow {oZo^XUo*.8.ioK            ",
"              O1oZoIo/opozOdoZoZoZoZoZoZoZoZOM h C PoZXqoQo$.j              ",
"            Xj 1oZohX- ZOdoZoZX= PXSXSod o p.YXV.T ColXNo`.I                ",
"            O,oZX9O$.pOdoZoZXQ }o1OdOdo1O,XPo0X9X* - }.[O%Oq                ",
"          OO E p ioG.`oZoZOcXt [oZ.gOXo[X*ot z 6X.oH ZOdO:O@O9              ",
"XgOson.t * qX3oZ.5. OdoZoZodX[XH.(    O0XKOeXJoC +O8.r 6.AX| l.W J..owX~    ",
"Xg UXAX[oZ.' E pos `oZoZOM h.voP        . OeocopOZ eXHoUOM.XOv.7.YOd.H sX#  ",
" AX=oZoZoZ Bo)OMofozoZoZOi.g o.z        O#OMXHovX{o1oHXSXr 6Xjo|X.o| DoFXX  ",
"XLO;oZoZoZ +XkoH.^ (oZoZOi.g.`o<        o-OXXQ.0.bo1X3 tOd.XOh tO% :OZO$o7  ",
"oQXkOcX.oxX.XHoZ._ (oZoZOM hoZoO  oA  .&ozOe SoG Go1Oco1XH (.l v o.X.|X) Y  ",
"o4..os H.6O5O8oIo} QoZoZoZodX[Oe y ~X'OoOM.,o6oQo{ e BO%o>.E.9 MX% >XEOj.:  ",
"  Xz <.M 7O* 5XN o _.YoZoZOcOoOMO: +.A.YoHX8XBoN e.` mO.o{ `OtX#OA 4.3O+oW  ",
"            X;oZoZ |o, p [oZorokX^OZoX.Lo:oB.LO%OZOM d to1X,.U.m            ",
"              OaoZXkXy O FOeOeo[.w.Fo+ I boro> toHoroHo{oVX4OC              ",
"              .>X.O:XR.@oaX*omO8 Bororor :o> :o^.XO4o> PXgo@.}              ",
"              X,o= + Fo% aXK.,X*.=X.o[.goHX3OMXnXQo>O%Ol X ^oy              ",
"             x = r M.goZ eocXn 6 1O:.AOMOM 6 hO6Xm toOozo>X@XZ              ",
"         kOBX  8O<Xc.Z.`.[X9Xvo1XkXmOZX(O%Odo>o>X( joN 2 ,OZXf f            ",
"         gX2XN F B :X/XEo&Oc 1O.XroH c :o1 eo1o3OVXDo>XCo>o>.h.2 ;          ",
"         9.4X1XQo>.0ob no]X&.<.;o%o0or SX|OSOqObO= #XYXOo>o> wXBXu          ",
"          Xpog 0 u ].SX<    .No2o_XiOn.R.e KX6OqX> %OzOxX$o8.zOro5          ",
"            XFo;./X0.x        oso>o>o>O4.^Xwo'.B      .1ONOVXoXT            ",
"            .oXWXIoR           VOio>o>OZoeXG.m          X+.Q $              ",
"                              Xh.Xo>o> mO0Xb                                ",
"                              Ou }.roM.;X`X!                                ",
"                              .$oPoToTX].(.{                                ",
"                                .- T W !Xd )                                ",
"                                                                            "
};
