/* XPM */
static char *unknown[] = {
/* columns rows colors chars-per-pixel */
"38 38 145 2 ",
"   c #020101",
".  c #090601",
"X  c #0E0A03",
"o  c #0C0C0C",
"O  c #120D04",
"+  c #140F09",
"@  c #161007",
"#  c #181307",
"$  c #16120B",
"%  c #1B150A",
"&  c #1E180D",
"*  c #141414",
"=  c #1D1912",
"-  c #1B1B1B",
";  c #221C0E",
":  c #251D11",
">  c #211F1B",
",  c #2B2314",
"<  c #22201D",
"1  c #2D2619",
"2  c #2F291D",
"3  c #342C1A",
"4  c #382E1B",
"5  c #3C321D",
"6  c #232222",
"7  c #2B2924",
"8  c #3B3423",
"9  c #36332D",
"0  c #3D382E",
"q  c #363636",
"w  c #3D3A34",
"e  c #40351F",
"r  c #413722",
"t  c #443923",
"y  c #483B25",
"u  c #413A2C",
"i  c #443E33",
"p  c #413E39",
"a  c #4E4127",
"s  c #4D4129",
"d  c #52452B",
"f  c #57492E",
"g  c #594A2F",
"h  c #454139",
"j  c #4C473D",
"k  c #594D33",
"l  c #50493E",
"z  c #5F5134",
"x  c #5D513B",
"c  c #635435",
"v  c #615338",
"b  c #6C5B3A",
"n  c #705F3B",
"m  c #444443",
"M  c #4B4944",
"N  c #4B4B4A",
"B  c #504D45",
"V  c #514F4B",
"C  c #565147",
"Z  c #5C5445",
"A  c #52504C",
"S  c #5B554A",
"D  c #545350",
"F  c #595652",
"G  c #5C5952",
"H  c #665B45",
"J  c #6E5F41",
"K  c #625A4C",
"L  c #635E53",
"P  c #635F58",
"I  c #736343",
"U  c #786643",
"Y  c #7C6943",
"T  c #76694E",
"R  c #786848",
"E  c #6B6250",
"W  c #6E685A",
"Q  c #826E47",
"!  c #826F48",
"~  c #86724A",
"^  c #8B764C",
"/  c #8D7950",
"(  c #84775A",
")  c #887858",
"_  c #937D52",
"`  c #978154",
"'  c #9B8456",
"]  c #97845C",
"[  c #998459",
"{  c #9F885B",
"}  c #A28B5C",
"|  c #9B8B6A",
" . c #988C77",
".. c #A48E61",
"X. c #A79064",
"o. c #A89265",
"O. c #AC966C",
"+. c #A09072",
"@. c #AF9A71",
"#. c #B09C74",
"$. c #B19F7A",
"%. c #B6A37C",
"&. c #AB9D81",
"*. c #B9A782",
"=. c #BBA985",
"-. c #BEAD8A",
";. c #A5A5A5",
":. c #C0AF8D",
">. c #C4B494",
",. c #C6B698",
"<. c #C7B89A",
"1. c #C9BB9D",
"2. c #C3B9A3",
"3. c #CCBEA2",
"4. c #CEC0A5",
"5. c #CFC2A8",
"6. c #D2C6AC",
"7. c #D4C8AF",
"8. c #D2C7B1",
"9. c #D6CAB2",
"0. c #D8CDB5",
"q. c #D7CFBE",
"w. c #DACFB9",
"e. c #DCD1BC",
"r. c #DFD4C0",
"t. c #D8D8D8",
"y. c #E0D6C3",
"u. c #E1D8C6",
"i. c #E4DCCB",
"p. c #E5DED1",
"a. c #E2DFD9",
"s. c #EAE2D3",
"d. c #ECE6D9",
"f. c #EFE8DB",
"g. c #F0EADD",
"h. c #EEEAE1",
"j. c #F3EDE2",
"k. c #F5F1E7",
"l. c #F6F2E8",
"z. c #F9F5ED",
"x. c #F5F5F5",
"c. c #F8F7F3",
"v. c #FDFAF3",
"b. c #FFFFFE",
"n. c None",
/* pixels */
"n.n.n.n.n.n.n.n.n.n.n.n.n.n.n.. X , 4 ; ; n.n.n.n.n.n.n.n.n.n.n.n.n.n.n.n.n.",
"n.n.n.n.n.n.n.n.n.n.n.n.n.n.n.@ 3.c.j.6.2 A n.n.n.n.n.n.n.n.n.n.n.n.n.n.n.n.",
"n.n.n.n.n.n.n.n.n.n.n.n.n.n.n.# j.x.b.r.d G n.n.n.n.n.n.n.n.n.n.n.n.n.n.n.n.",
"n.n.n.n.n.n.n.n.n.n.n.n.n.n.n.; v.x.x.e.c W n.n.n.n.n.n.n.n.n.n.n.n.n.n.n.n.",
"n.n.n.n.n.n.O . s n.n.n.n.n.n.r b.x.b.s.U ( n.n.n.n.n.      n.n.n.n.n.n.n.n.",
"n.n.n.n.n.# ..k.d 5 m n.n.n.n.t d.p.d.y.e H n.n.n.n.  : s.~   n.n.n.n.n.n.n.",
"n.n.n.n.. } b.b.b.` : ) n.@.5.i.g.u.g.g.%.r * n.n.  k x.b.h.J   n.n.n.n.n.n.",
"n.n.n.n.  a.b.x.b.b.%.X.b.b.b.b.b.b.c.b.b.b.9.c   v x.b.h.u.4.  7 n.n.n.n.n.",
"n.n.n.n.o , x.b.b.c.u.b.b.b.5.o.~ b c ~ *.u.b.b.>.2 2.h.u.9.5 8 V n.n.n.n.n.",
"n.n.n.n.n.o _ b.v.u.b.b.5.c e 3 c U } } b k ] i.b.s.f $.0.b : P m n.n.n.n.n.",
"n.n.n.n.n.n.r q.g.b.c.o.; c %.u.i.b.b.b.i.4.&.R 9.b.s.s R + E N n.n.n.n.n.n.",
"n.n.n.n.n.n.n.,.b.v.} : %.i.b.b.b.b.b.b.b.b.i.1.I 5.b.5.e w N n.n.n.n.n.n.n.",
"n.n.n.n.n.n.J g.b.<.; } u.b.b.b.6.<.<.@.7.b.f.g.9.I e.b.{ q n.n.n.n.n.n.n.n.",
"n.n.n.n.n.n.@.b.z.: } u.b.b.y.O.0.u.i.9.O._ >.z.k.-.O.b.w.- n.n.n.n.n.n.n.n.",
"n.n.n.n.n.8 6.b.$.& w.b.b.s...b.b.i.d.f.k.` y >.j.u.} u.j.d - n.n.n.n.n.n.n.",
"  . X ; ..` u.b.g ~ u.b.b.@.v.y.:     X e.k.Q Y d.z.4.>.s.{ $ r , , , + n.n.",
"  ,.g.v.b.i.5.b.4 U b.b.i.1.v.%         ~ k.%.; 7.r.r.*.i.>.| z.g.i.3.. - n.",
"$ b.b.b.b.s.:.i.3 %.b.b.3.i.6.          5 i.r.b *.9.i.,.s.,.n f.j.d.u.& 6 n.",
": b.b.b.b.d.7.i., -.b.b.1.i.w..         a d.y.b *.0.u.e.u.,.n e.e.0.9.: 6 n.",
"e 7.p.j.l.j.e.b.5 :.b.b.i.1.b.5   X   ; %.k.=.% *.9.s.9.y.:.~ u.6.>.@.X 6 n.",
"# , 5 r n Q l.v.~ o.b.b.b.@.v.l._ ..^ ` i.j.n e 7.r.s.w.0.O.o ; O . . $ w n.",
"n.F P S j h 9.b.6.d f.b.b.s.' i.j.d.s.f.i.e . $.r.w.3.d.8.U - - l K K D m n.",
"n.n.n.n.n.n.I b.b.H -.b.v.b.>.g %.7.5.:.c X -.e.8.s.1.e.9.* $ m n.n.n.n.n.n.",
"n.n.n.n.n.n.n.1.b.8.x 5.v.k.k.f.Y d 5 , b :.0.e.i.:.i.8./ * w n.n.n.n.n.n.n.",
"n.n.n.n.n.n.n.3 j.j.@.T w.l.l.z.s.>.>.>.0.0.0.s.>.y.0.7.  - V n.n.n.n.n.n.n.",
"n.n.n.n.n.n.  * & d.v.-.( e.j.l.j.g.f.i.i.u.i.:.u.9.w.g b X Z n.n.n.n.n.n.n.",
"n.n.n.n.n.  % ;. .; i.b.y.$.:.,.f.j.s.i.i.,.1.r.w.w.e %.0.n $ n.n.n.n.n.n.n.",
"n.n.n.n.  & t.c.v. .b w.b.z.d.9.7.0.7.5.w.i.0.0.5.y #.9.9.9.2 2 n.n.n.n.n.n.",
"n.n.n.n.. h.b.v.p.0.Y . } p.g.d.s.u.u.0.9.r.9.~   ~ 0.9.0.0.1.. x n.n.n.n.n.",
"n.n.n.n.O [ h.u.9.b O h q - c @.:.>.>.=.[ t - - = X x 8.0.0.Q . x n.n.n.n.n.",
"n.n.n.n.n.. n >.4 & C V n.n.> % / U U ' : 1 o - B p o : >.!   3 K n.n.n.n.n.",
"n.n.n.n.n.n.$ . 8 D N n.n.n.n.4 0.0.0.y.: o M m n.n.n.*   . 1 L n.n.n.n.n.n.",
"n.n.n.n.n.n.H 0 V m n.n.n.n.n.; 1.0.0.7.@ 8 m n.n.n.n.n.6 9 C n.n.n.n.n.n.n.",
"n.n.n.n.n.n.n.n.n.n.n.n.n.n.n.$ >.0.0.4.X h n.n.n.n.n.n.n.n.n.n.n.n.n.n.n.n.",
"n.n.n.n.n.n.n.n.n.n.n.n.n.n.n.; O.4.3.$.. K n.n.n.n.n.n.n.n.n.n.n.n.n.n.n.n.",
"n.n.n.n.n.n.n.n.n.n.n.n.n.n.n.5 % 1 , & : P n.n.n.n.n.n.n.n.n.n.n.n.n.n.n.n.",
"n.n.n.n.n.n.n.n.n.n.n.n.n.n.n.n.2 8 8 8 u V n.n.n.n.n.n.n.n.n.n.n.n.n.n.n.n.",
"n.n.n.n.n.n.n.n.n.n.n.n.n.n.n.n.n.n.n.n.n.n.n.n.n.n.n.n.n.n.n.n.n.n.n.n.n.n."
};
